<?xml version="1.0" encoding="UTF-8"?>
<!DOCTYPE svg PUBLIC "-//W3C//DTD SVG 1.1//EN" "http://www.w3.org/Graphics/SVG/1.1/DTD/svg11.dtd">
<svg xmlns="http://www.w3.org/2000/svg" version="1.1" width="512px" height="512px" style="shape-rendering:geometricPrecision; text-rendering:geometricPrecision; image-rendering:optimizeQuality; fill-rule:evenodd; clip-rule:evenodd" xmlns:xlink="http://www.w3.org/1999/xlink">
<g><path style="opacity:0.983" fill="#9afd9d" d="M 255.5,14.5 C 255.5,25.1667 255.5,35.8333 255.5,46.5C 250.167,46.5 244.833,46.5 239.5,46.5C 239.5,50.5 239.5,54.5 239.5,58.5C 210.92,60.5794 197.42,75.9128 199,104.5C 203.951,121.951 215.451,131.618 233.5,133.5C 235.265,134.461 237.265,134.795 239.5,134.5C 239.5,138.167 239.5,141.833 239.5,145.5C 229.833,145.5 220.167,145.5 210.5,145.5C 210.172,156.346 210.506,167.013 211.5,177.5C 220.833,177.5 230.167,177.5 239.5,177.5C 239.5,181.5 239.5,185.5 239.5,189.5C 244.833,189.5 250.167,189.5 255.5,189.5C 255.5,200.167 255.5,210.833 255.5,221.5C 210.738,219.876 178.905,198.876 160,158.5C 143.513,111.946 153.346,71.7797 189.5,38C 208.777,22.7395 230.777,14.9062 255.5,14.5 Z"/></g>
<g><path style="opacity:0.983" fill="#71ec76" d="M 255.5,14.5 C 309.202,17.9272 343.035,45.5938 357,97.5C 363.983,142.59 349.15,178.424 312.5,205C 295.085,215.937 276.085,221.437 255.5,221.5C 255.5,210.833 255.5,200.167 255.5,189.5C 260.833,189.5 266.167,189.5 271.5,189.5C 271.5,185.5 271.5,181.5 271.5,177.5C 292.529,177.635 306.029,167.635 312,147.5C 314.334,125.658 305.168,111.158 284.5,104C 280.187,103.265 275.853,102.765 271.5,102.5C 271.5,98.5 271.5,94.5 271.5,90.5C 281.167,90.5 290.833,90.5 300.5,90.5C 300.5,79.8333 300.5,69.1667 300.5,58.5C 290.833,58.5 281.167,58.5 271.5,58.5C 271.5,54.5 271.5,50.5 271.5,46.5C 266.167,46.5 260.833,46.5 255.5,46.5C 255.5,35.8333 255.5,25.1667 255.5,14.5 Z"/></g>
<g><path style="opacity:1" fill="#72ed77" d="M 255.5,46.5 C 255.5,94.1667 255.5,141.833 255.5,189.5C 250.167,189.5 244.833,189.5 239.5,189.5C 239.5,185.5 239.5,181.5 239.5,177.5C 230.167,177.5 220.833,177.5 211.5,177.5C 211.5,167.167 211.5,156.833 211.5,146.5C 221.167,146.5 230.833,146.5 240.5,146.5C 240.5,142.167 240.5,137.833 240.5,133.5C 238.167,133.5 235.833,133.5 233.5,133.5C 215.451,131.618 203.951,121.951 199,104.5C 197.42,75.9128 210.92,60.5794 239.5,58.5C 239.5,54.5 239.5,50.5 239.5,46.5C 244.833,46.5 250.167,46.5 255.5,46.5 Z"/></g>
<g><path style="opacity:1" fill="#41d447" d="M 255.5,46.5 C 260.833,46.5 266.167,46.5 271.5,46.5C 271.5,50.5 271.5,54.5 271.5,58.5C 281.167,58.5 290.833,58.5 300.5,58.5C 300.5,69.1667 300.5,79.8333 300.5,90.5C 290.833,90.5 281.167,90.5 271.5,90.5C 271.5,94.5 271.5,98.5 271.5,102.5C 275.853,102.765 280.187,103.265 284.5,104C 305.168,111.158 314.334,125.658 312,147.5C 306.029,167.635 292.529,177.635 271.5,177.5C 271.5,181.5 271.5,185.5 271.5,189.5C 266.167,189.5 260.833,189.5 255.5,189.5C 255.5,141.833 255.5,94.1667 255.5,46.5 Z"/></g>
<g><path style="opacity:1" fill="#99fd9c" d="M 233.5,90.5 C 235.5,90.5 237.5,90.5 239.5,90.5C 239.5,94.5 239.5,98.5 239.5,102.5C 233.321,103.142 230.154,100.475 230,94.5C 231.032,92.9733 232.199,91.64 233.5,90.5 Z"/></g>
<g><path style="opacity:0.962" fill="#4cdffd" d="M 511.5,239.5 C 511.5,250.167 511.5,260.833 511.5,271.5C 501.886,329.45 469.219,367.783 413.5,386.5C 412.558,386.392 411.725,386.059 411,385.5C 408.5,376.167 406,366.833 403.5,357.5C 403.833,356.833 404.167,356.167 404.5,355.5C 447.704,340.789 472.537,310.789 479,265.5C 481.36,227.06 467.527,195.893 437.5,172C 436.517,171.409 435.85,171.743 435.5,173C 437.98,179.424 439.813,185.924 441,192.5C 431.157,195.726 421.324,199.059 411.5,202.5C 402.898,178.027 394.898,153.36 387.5,128.5C 411.884,121.539 436.051,113.872 460,105.5C 463.585,115.418 467.085,125.418 470.5,135.5C 464.763,138.473 458.763,140.973 452.5,143C 485.82,166.806 505.487,198.972 511.5,239.5 Z"/></g>
<g><path style="opacity:0.963" fill="#7de6fd" d="M -0.5,271.5 C -0.5,260.833 -0.5,250.167 -0.5,239.5C 9.11434,181.55 41.781,143.217 97.5,124.5C 98.4419,124.608 99.2753,124.941 100,125.5C 102.5,134.833 105,144.167 107.5,153.5C 107.167,154.167 106.833,154.833 106.5,155.5C 63.7583,170.083 38.925,199.749 32,244.5C 29.3398,283.338 43.1731,314.838 73.5,339C 74.4835,339.591 75.1501,339.257 75.5,338C 73.0203,331.576 71.187,325.076 70,318.5C 79.843,315.274 89.6763,311.941 99.5,308.5C 108.102,332.973 116.102,357.64 123.5,382.5C 99.1097,389.463 74.943,397.13 51,405.5C 47.4154,395.582 43.9154,385.582 40.5,375.5C 46.3,372.706 52.3,370.206 58.5,368C 25.1948,344.232 5.52809,312.065 -0.5,271.5 Z"/></g>
<g><path style="opacity:1" fill="#71ec76" d="M 271.5,134.5 C 280.487,133.665 282.82,137.165 278.5,145C 276.19,145.497 273.857,145.663 271.5,145.5C 271.5,141.833 271.5,138.167 271.5,134.5 Z"/></g>
<g><path style="opacity:1" fill="#82f386" d="M 233.5,133.5 C 235.833,133.5 238.167,133.5 240.5,133.5C 240.5,137.833 240.5,142.167 240.5,146.5C 230.833,146.5 221.167,146.5 211.5,146.5C 211.5,156.833 211.5,167.167 211.5,177.5C 210.506,167.013 210.172,156.346 210.5,145.5C 220.167,145.5 229.833,145.5 239.5,145.5C 239.5,141.833 239.5,138.167 239.5,134.5C 237.265,134.795 235.265,134.461 233.5,133.5 Z"/></g>
<g><path style="opacity:0.982" fill="#fee798" d="M 255.5,289.5 C 255.5,302.5 255.5,315.5 255.5,328.5C 232.947,327.525 216.781,337.192 207,357.5C 205.431,361.703 204.598,366.036 204.5,370.5C 203.539,372.265 203.205,374.265 203.5,376.5C 198.305,376.179 193.305,376.513 188.5,377.5C 188.5,387.833 188.5,398.167 188.5,408.5C 193.5,408.5 198.5,408.5 203.5,408.5C 205.971,440.639 223.305,456.972 255.5,457.5C 255.5,470.5 255.5,483.5 255.5,496.5C 201.798,493.073 167.965,465.406 154,413.5C 146.972,368.575 161.806,332.742 198.5,306C 215.915,295.063 234.915,289.563 255.5,289.5 Z"/></g>
<g><path style="opacity:0.985" fill="#feb900" d="M 255.5,289.5 C 300.262,291.124 332.095,312.124 351,352.5C 368.373,403.7 355.873,445.867 313.5,479C 295.863,490.378 276.529,496.212 255.5,496.5C 255.5,483.5 255.5,470.5 255.5,457.5C 266.5,457.5 277.5,457.5 288.5,457.5C 288.5,447.167 288.5,436.833 288.5,426.5C 277.5,426.5 266.5,426.5 255.5,426.5C 255.5,426.167 255.5,425.833 255.5,425.5C 255.5,419.833 255.5,414.167 255.5,408.5C 271.833,408.5 288.167,408.5 304.5,408.5C 304.5,398.167 304.5,387.833 304.5,377.5C 288.167,377.5 271.833,377.5 255.5,377.5C 255.5,371.5 255.5,365.5 255.5,359.5C 266.5,359.5 277.5,359.5 288.5,359.5C 288.5,349.167 288.5,338.833 288.5,328.5C 277.5,328.5 266.5,328.5 255.5,328.5C 255.5,315.5 255.5,302.5 255.5,289.5 Z"/></g>
<g><path style="opacity:1" fill="#feba02" d="M 255.5,328.5 C 255.5,338.833 255.5,349.167 255.5,359.5C 242.458,358.656 235.791,364.656 235.5,377.5C 242.167,377.5 248.833,377.5 255.5,377.5C 255.5,387.833 255.5,398.167 255.5,408.5C 248.833,408.5 242.167,408.5 235.5,408.5C 235.982,421.31 242.649,426.976 255.5,425.5C 255.5,425.833 255.5,426.167 255.5,426.5C 255.5,436.833 255.5,447.167 255.5,457.5C 223.305,456.972 205.971,440.639 203.5,408.5C 198.5,408.5 193.5,408.5 188.5,408.5C 188.5,398.167 188.5,387.833 188.5,377.5C 193.833,377.5 199.167,377.5 204.5,377.5C 204.5,375.167 204.5,372.833 204.5,370.5C 204.598,366.036 205.431,361.703 207,357.5C 216.781,337.192 232.947,327.525 255.5,328.5 Z"/></g>
<g><path style="opacity:1" fill="#fda72f" d="M 255.5,328.5 C 266.5,328.5 277.5,328.5 288.5,328.5C 288.5,338.833 288.5,349.167 288.5,359.5C 277.5,359.5 266.5,359.5 255.5,359.5C 255.5,349.167 255.5,338.833 255.5,328.5 Z"/></g>
<g><path style="opacity:1" fill="#fee694" d="M 255.5,359.5 C 255.5,365.5 255.5,371.5 255.5,377.5C 248.833,377.5 242.167,377.5 235.5,377.5C 235.791,364.656 242.458,358.656 255.5,359.5 Z"/></g>
<g><path style="opacity:1" fill="#fed55b" d="M 204.5,370.5 C 204.5,372.833 204.5,375.167 204.5,377.5C 199.167,377.5 193.833,377.5 188.5,377.5C 193.305,376.513 198.305,376.179 203.5,376.5C 203.205,374.265 203.539,372.265 204.5,370.5 Z"/></g>
<g><path style="opacity:1" fill="#fea72f" d="M 255.5,377.5 C 271.833,377.5 288.167,377.5 304.5,377.5C 304.5,387.833 304.5,398.167 304.5,408.5C 288.167,408.5 271.833,408.5 255.5,408.5C 255.5,398.167 255.5,387.833 255.5,377.5 Z"/></g>
<g><path style="opacity:1" fill="#fee798" d="M 255.5,408.5 C 255.5,414.167 255.5,419.833 255.5,425.5C 242.649,426.976 235.982,421.31 235.5,408.5C 242.167,408.5 248.833,408.5 255.5,408.5 Z"/></g>
<g><path style="opacity:1" fill="#fea72f" d="M 255.5,426.5 C 266.5,426.5 277.5,426.5 288.5,426.5C 288.5,436.833 288.5,447.167 288.5,457.5C 277.5,457.5 266.5,457.5 255.5,457.5C 255.5,447.167 255.5,436.833 255.5,426.5 Z"/></g>
</svg>
